<svg xmlns="http://www.w3.org/2000/svg" viewBox="0 0 1184.000000 1464.000000" role="img" aria-label="BitBrew">
<g transform="translate(0.000000,1464.000000) scale(0.100000,-0.100000)"
fill="currentColor" stroke="none">
<path d="M360 14273 c0 -5 0 -3129 0 -6943 0 -3814 0 -6943 0 -6952 0 -17 181
-18 3659 -18 3624 0 3659 0 3702 20 35 15 66 20 149 20 88 0 110 3 135 20 22
15 47 20 93 20 49 0 70 5 89 20 19 15 41 20 83 20 42 0 64 5 83 20 16 13 40
20 67 20 27 0 51 7 67 20 16 12 41 20 65 20 25 0 50 8 65 20 14 11 40 20 58
20 19 0 39 8 50 20 13 14 31 20 61 20 33 0 46 5 54 20 7 13 21 20 40 20 17 0
39 9 50 20 12 12 33 20 53 20 21 0 41 8 52 20 10 11 31 20 46 20 18 0 32 7 39
20 7 13 21 20 39 20 15 0 36 9 46 20 10 11 28 20 40 20 12 0 30 9 40 20 10 11
28 20 40 20 12 0 30 9 40 20 10 11 26 20 35 20 9 0 25 9 35 20 10 11 23 20 29
20 7 0 19 9 29 20 9 11 25 20 35 20 11 0 27 9 37 20 10 11 25 20 33 20 8 0 36
18 62 40 26 22 57 40 68 40 12 0 25 7 29 15 11 19 122 105 137 105 6 0 38 27
70 60 33 33 62 60 67 60 25 0 112 78 321 288 134 135 242 252 251 272 9 19 44
64 78 100 34 36 68 80 76 98 8 18 29 48 48 65 19 18 35 41 35 52 0 11 18 38
40 60 26 27 39 49 40 68 0 15 7 30 15 33 8 3 29 31 47 63 17 31 38 60 45 64 7
4 13 21 13 37 0 19 7 33 20 40 13 7 20 21 20 40 0 19 7 33 20 40 13 7 20 21
20 40 0 19 7 33 20 40 13 7 20 21 20 40 0 19 7 33 20 40 13 7 20 21 20 39 0
15 9 38 20 51 12 14 20 37 20 61 0 28 5 41 20 49 15 8 20 21 20 54 0 30 6 48
20 61 15 13 20 31 20 66 0 38 4 51 20 59 16 9 20 21 20 64 0 38 6 61 20 79 14
18 20 40 20 80 0 39 6 61 20 80 16 20 20 40 20 104 0 60 5 85 20 111 17 28 20
50 20 160 0 82 6 150 16 192 21 86 21 329 0 420 -10 40 -16 113 -16 190 0 108
-3 129 -20 155 -16 24 -20 47 -20 108 0 64 -4 84 -20 104 -15 19 -20 41 -20
82 0 44 -4 60 -20 74 -15 12 -20 29 -20 63 0 31 -7 54 -20 71 -12 15 -20 41
-20 62 0 24 -7 42 -20 54 -14 11 -20 29 -20 57 0 29 -5 42 -20 50 -15 8 -20
21 -20 49 0 23 -8 48 -20 64 -11 14 -20 37 -20 51 0 15 -8 30 -20 36 -13 7
-20 21 -20 40 0 19 -7 33 -20 40 -13 7 -20 21 -20 40 0 19 -7 33 -20 40 -13 7
-20 21 -20 38 0 15 -8 35 -17 43 -32 29 -52 58 -59 85 -4 14 -13 28 -20 31 -7
2 -18 19 -24 37 -5 17 -22 45 -38 62 -38 44 -72 91 -72 103 0 6 -26 38 -57 72
-32 33 -67 77 -77 97 -37 72 -408 432 -444 432 -5 0 -36 27 -70 60 -34 33 -70
60 -80 60 -10 0 -36 18 -58 40 -21 22 -44 40 -51 40 -6 0 -33 17 -60 38 -26
20 -59 43 -73 50 -59 30 -80 44 -80 50 0 9 66 62 77 62 12 0 45 26 102 77 25
24 53 43 61 43 8 0 48 30 89 66 40 36 92 77 115 91 66 41 423 401 458 461 16
29 54 77 84 106 30 29 54 61 54 72 0 10 21 41 45 67 25 26 45 52 45 58 0 13
41 72 58 82 6 4 12 21 12 37 0 18 7 33 18 39 10 5 31 34 46 65 15 30 34 60 42
67 8 6 14 21 14 34 0 12 9 30 20 40 11 10 20 28 20 40 0 12 9 34 20 48 11 14
20 37 20 51 0 14 9 35 20 46 11 11 20 33 20 50 0 19 7 33 20 40 15 8 20 21 20
54 0 30 6 48 20 61 13 12 20 31 20 55 0 24 7 43 20 55 15 14 20 31 20 71 0 43
4 55 20 64 17 9 20 21 20 74 0 48 5 69 20 89 16 20 20 40 20 102 0 59 5 85 19
109 29 47 40 410 26 816 -7 182 -11 219 -26 245 -14 22 -19 50 -19 108 0 64
-4 84 -20 104 -14 19 -20 41 -20 80 0 40 -6 62 -20 80 -13 17 -20 41 -20 70 0
30 -7 53 -20 70 -13 17 -20 41 -20 68 0 29 -6 47 -20 60 -13 11 -20 31 -20 52
0 20 -9 46 -20 60 -11 14 -20 38 -20 53 0 15 -9 35 -20 45 -13 12 -20 31 -20
55 0 24 -7 43 -20 55 -11 10 -20 31 -20 46 0 18 -7 32 -20 39 -13 7 -20 21
-20 40 0 19 -7 33 -20 40 -13 7 -20 21 -20 40 0 19 -7 33 -20 40 -12 7 -20 21
-20 38 -1 17 -13 39 -35 61 -18 18 -36 45 -40 60 -4 14 -15 34 -26 44 -10 10
-19 25 -19 35 0 9 -16 34 -35 55 -19 21 -47 59 -61 85 -15 26 -41 61 -59 77
-17 17 -44 53 -59 80 -16 28 -53 75 -82 105 -62 63 -114 129 -114 142 0 17
-265 274 -321 311 -31 21 -89 71 -130 112 -40 41 -79 75 -85 75 -15 0 -114 77
-132 102 -7 10 -22 18 -32 18 -11 0 -38 18 -62 40 -24 22 -52 40 -63 40 -12 0
-40 18 -63 40 -22 22 -50 40 -60 40 -10 0 -27 9 -37 20 -10 11 -28 20 -40 20
-13 0 -28 7 -35 16 -8 8 -27 22 -44 29 -32 15 -52 27 -98 57 -15 10 -34 18
-41 18 -8 0 -26 9 -40 20 -14 11 -32 20 -40 20 -8 0 -26 9 -40 20 -14 11 -37
20 -51 20 -14 0 -34 9 -43 20 -10 11 -29 20 -44 20 -14 0 -34 9 -44 20 -10 11
-30 20 -45 20 -15 0 -35 9 -45 20 -12 13 -31 20 -55 20 -24 0 -43 7 -55 20
-12 13 -31 20 -57 20 -26 0 -44 6 -55 20 -12 14 -30 20 -60 20 -30 0 -49 6
-63 20 -15 15 -33 20 -69 20 -33 0 -56 6 -74 20 -19 15 -40 20 -85 20 -44 0
-66 5 -85 20 -20 16 -40 20 -99 20 -56 0 -80 5 -103 20 -25 17 -47 20 -131 20
-80 0 -111 4 -145 20 -44 19 -79 20 -3711 20 -2018 0 -3668 -3 -3668 -7z
m6920 -1374 c47 -6 158 -14 246 -18 135 -5 165 -9 181 -23 15 -14 37 -18 100
-18 65 0 85 -4 106 -20 17 -14 40 -20 75 -20 34 0 57 -6 75 -20 16 -13 40 -20
70 -20 31 0 49 -6 62 -20 11 -12 31 -20 50 -20 18 0 44 -9 58 -20 14 -11 36
-20 50 -20 13 0 32 -9 42 -20 10 -11 30 -20 45 -20 15 0 35 -9 45 -20 10 -11
28 -20 40 -20 12 0 34 -9 48 -20 14 -11 32 -20 40 -20 8 0 20 -7 27 -14 6 -8
27 -20 45 -26 18 -6 36 -17 39 -25 3 -8 16 -15 29 -15 13 0 32 -9 42 -20 10
-11 24 -20 31 -20 7 0 35 -18 63 -40 28 -22 55 -40 60 -40 12 0 124 -88 134
-105 4 -8 18 -15 30 -15 16 0 83 -60 229 -207 211 -213 248 -253 248 -272 0
-6 20 -32 45 -58 25 -25 45 -53 45 -62 0 -10 18 -36 40 -59 25 -25 40 -51 40
-66 0 -14 6 -29 14 -33 18 -11 106 -177 106 -201 0 -10 9 -27 20 -37 11 -10
20 -31 20 -46 0 -18 7 -32 20 -39 15 -8 20 -21 20 -49 0 -23 8 -48 20 -64 12
-15 20 -40 20 -65 0 -26 6 -45 20 -57 15 -14 20 -31 20 -72 0 -40 6 -62 20
-80 17 -21 20 -41 20 -113 0 -66 5 -99 20 -131 17 -39 20 -66 19 -224 0 -143
-3 -188 -16 -220 -11 -27 -18 -79 -20 -156 -4 -100 -7 -119 -24 -135 -15 -13
-19 -30 -19 -76 0 -45 -5 -66 -20 -85 -13 -17 -20 -41 -20 -68 0 -27 -7 -51
-20 -68 -11 -14 -20 -38 -20 -55 0 -16 -9 -41 -20 -55 -11 -14 -20 -39 -20
-56 0 -19 -8 -38 -20 -48 -11 -10 -20 -30 -20 -45 0 -17 -7 -31 -20 -38 -13
-7 -20 -21 -20 -40 0 -19 -7 -33 -20 -40 -11 -6 -20 -20 -20 -31 0 -12 -18
-43 -40 -69 -22 -26 -40 -55 -40 -64 0 -10 -16 -34 -36 -54 l-36 -37 -24 28
c-21 24 -24 38 -24 103 0 61 -4 81 -20 101 -14 18 -20 41 -20 73 0 34 -5 52
-20 65 -14 13 -20 31 -20 60 0 29 -6 47 -20 60 -12 11 -20 31 -20 49 0 17 -9
45 -20 61 -11 17 -20 42 -20 57 0 17 -8 31 -20 38 -13 7 -20 21 -20 41 0 17
-9 42 -20 56 -11 14 -20 36 -20 48 0 12 -9 34 -20 48 -11 14 -20 34 -20 45 0
10 -9 27 -20 37 -11 10 -20 27 -20 38 0 11 -7 29 -17 39 -18 20 -35 48 -56 93
-8 17 -21 36 -30 44 -10 7 -17 23 -17 35 0 11 -16 37 -36 56 -19 19 -38 46
-41 60 -3 14 -12 34 -20 46 -9 14 -16 70 -20 167 -5 125 -9 149 -25 163 -12
12 -18 31 -18 61 0 30 -7 54 -20 70 -11 14 -20 38 -20 54 0 18 -7 32 -20 39
-13 7 -20 21 -20 40 0 19 -7 33 -20 40 -13 7 -20 21 -20 40 0 16 -6 33 -14 37
-7 4 -27 33 -44 63 -37 65 -390 420 -419 420 -10 0 -38 18 -62 40 -24 22 -51
40 -61 40 -9 0 -25 9 -35 20 -10 11 -28 20 -40 20 -12 0 -30 9 -40 20 -10 11
-28 20 -40 20 -12 0 -30 9 -40 20 -10 11 -31 20 -46 20 -18 0 -32 7 -39 20 -8
15 -21 20 -49 20 -23 0 -48 8 -64 20 -17 13 -40 20 -71 20 -35 0 -48 4 -56 20
-9 17 -21 20 -79 20 -56 0 -74 4 -97 23 l-29 22 -2372 3 c-1732 2 -2378 0
-2394 -8 -17 -10 -20 -18 -15 -48 4 -20 8 -439 11 -930 2 -490 7 -897 10 -902
4 -6 -4 -24 -17 -40 -13 -16 -41 -54 -63 -85 -22 -31 -57 -73 -77 -94 -21 -21
-38 -46 -38 -57 0 -10 -21 -41 -45 -67 -25 -26 -45 -52 -45 -58 0 -11 -38 -68
-56 -84 -7 -5 -14 -21 -17 -35 -4 -14 -22 -41 -41 -60 -23 -23 -35 -45 -36
-63 0 -15 -7 -30 -15 -33 -8 -3 -29 -31 -47 -63 -17 -31 -38 -60 -45 -64 -7
-4 -13 -21 -13 -37 0 -19 -7 -33 -20 -40 -13 -7 -20 -21 -20 -40 0 -19 -7 -33
-20 -40 -13 -7 -20 -21 -20 -40 0 -19 -7 -33 -20 -40 -13 -7 -20 -21 -20 -40
0 -19 -7 -33 -20 -40 -13 -7 -20 -21 -20 -40 0 -19 -7 -33 -20 -40 -13 -7 -20
-21 -20 -40 0 -19 -7 -33 -20 -40 -12 -7 -20 -21 -20 -38 0 -15 -9 -40 -20
-57 -11 -16 -20 -44 -20 -62 0 -22 -6 -36 -20 -43 -13 -7 -20 -21 -20 -39 0
-15 -9 -36 -20 -46 -14 -13 -20 -31 -20 -61 0 -33 -5 -46 -20 -54 -16 -8 -20
-21 -20 -60 0 -39 -4 -52 -20 -60 -16 -8 -20 -21 -20 -58 0 -30 -7 -58 -20
-77 -11 -16 -20 -46 -20 -65 0 -44 -12 -63 -36 -58 -15 3 -20 14 -22 53 -2 28
-6 1153 -8 2500 l-5 2450 24 25 23 25 2730 -2 c1993 -2 2752 -6 2814 -14z
m-595 -2519 c21 -14 47 -20 86 -20 41 0 63 -5 82 -20 14 -11 39 -20 57 -20 18
0 43 -9 57 -20 14 -11 35 -20 47 -20 11 0 49 -21 84 -47 61 -46 62 -47 62 -94
0 -37 -4 -51 -19 -58 -10 -6 -22 -22 -25 -36 -3 -13 -19 -31 -35 -40 -16 -8
-64 -48 -108 -90 -43 -41 -86 -75 -96 -75 -10 0 -55 -36 -100 -80 -45 -44 -85
-80 -89 -80 -22 0 -104 -72 -281 -248 -174 -173 -227 -233 -247 -279 -3 -7
-30 -38 -61 -70 -31 -32 -68 -80 -84 -107 -16 -27 -43 -65 -62 -85 -18 -20
-33 -44 -33 -54 0 -10 -16 -34 -35 -54 -19 -19 -39 -50 -45 -68 -6 -18 -17
-36 -25 -39 -9 -3 -15 -18 -15 -35 0 -20 -7 -34 -20 -41 -11 -6 -20 -21 -20
-34 0 -13 -9 -31 -20 -41 -11 -10 -20 -26 -20 -37 0 -10 -9 -27 -20 -38 -11
-11 -20 -28 -20 -39 0 -10 -9 -30 -20 -44 -11 -14 -20 -37 -20 -51 0 -15 -8
-30 -20 -36 -13 -7 -20 -21 -20 -39 0 -16 -9 -40 -20 -54 -11 -14 -20 -40 -20
-61 0 -25 -6 -38 -20 -46 -15 -8 -20 -21 -20 -54 0 -30 -6 -48 -20 -61 -15
-13 -20 -31 -20 -66 0 -38 -4 -51 -20 -59 -16 -8 -20 -21 -20 -58 0 -30 -7
-58 -20 -77 -14 -21 -20 -47 -20 -86 0 -41 -5 -63 -20 -82 -16 -20 -20 -40
-20 -105 0 -64 -4 -84 -20 -105 -15 -19 -20 -40 -20 -90 0 -51 -4 -67 -20 -82
-14 -13 -20 -31 -20 -60 0 -27 -7 -51 -20 -68 -12 -15 -20 -40 -20 -65 0 -24
-8 -49 -20 -65 -11 -14 -20 -40 -20 -60 0 -19 -9 -45 -20 -60 -11 -14 -20 -38
-20 -55 0 -16 -9 -37 -20 -47 -12 -11 -20 -31 -20 -52 0 -20 -8 -41 -20 -53
-11 -11 -20 -33 -20 -50 0 -19 -7 -33 -20 -40 -13 -7 -20 -21 -20 -40 0 -19
-7 -33 -20 -40 -13 -7 -20 -21 -20 -40 0 -19 -7 -33 -20 -40 -13 -7 -20 -21
-20 -40 0 -19 -7 -33 -20 -40 -13 -7 -20 -21 -20 -40 0 -19 -7 -33 -20 -40
-13 -7 -20 -21 -20 -41 0 -17 -6 -32 -15 -35 -8 -3 -28 -31 -46 -62 -17 -32
-38 -61 -45 -65 -8 -4 -14 -20 -14 -34 0 -17 -13 -38 -39 -62 -21 -20 -41 -47
-44 -61 -4 -14 -30 -50 -60 -80 -30 -30 -58 -66 -62 -80 -4 -13 -13 -29 -19
-35 -50 -51 -132 -149 -140 -170 -12 -28 -513 -535 -589 -596 -27 -22 -54 -39
-61 -39 -7 0 -21 -9 -31 -20 -10 -11 -30 -20 -44 -20 -15 0 -34 -9 -44 -20 -9
-11 -23 -20 -30 -20 -8 0 -22 9 -32 20 -10 11 -28 20 -40 20 -28 0 -186 158
-200 200 -6 16 -28 45 -48 64 -24 22 -37 43 -37 59 0 14 -6 30 -14 34 -7 4
-28 35 -45 67 -17 33 -35 64 -40 70 -5 6 -13 25 -17 41 -4 17 -15 41 -26 54
-10 13 -18 36 -18 52 0 18 -7 32 -20 39 -16 8 -20 21 -20 60 0 39 -4 52 -20
60 -16 9 -20 21 -20 61 0 36 -6 58 -20 76 -16 20 -20 41 -20 95 0 55 -4 75
-20 95 -17 22 -20 41 -20 135 0 70 -6 135 -17 181 -25 100 -25 366 0 453 12
43 17 100 17 185 0 107 3 128 20 154 16 24 20 47 20 111 0 68 3 84 20 99 16
14 20 31 20 77 0 45 5 66 20 85 14 19 20 41 20 79 0 42 5 58 20 71 15 13 20
30 20 64 0 33 5 51 20 64 14 13 20 31 20 61 0 33 5 46 20 54 15 8 20 21 20 54
0 30 6 48 20 61 11 10 20 30 20 44 0 15 9 34 20 44 11 9 20 29 20 46 0 15 9
40 20 54 11 14 20 36 20 50 0 13 9 32 20 42 11 10 20 31 20 46 0 18 7 32 20
39 11 6 20 19 20 29 0 10 9 30 20 43 11 14 24 36 30 49 17 37 35 67 53 87 10
10 17 28 17 40 0 12 9 26 20 32 11 6 20 21 20 33 0 13 17 40 40 62 22 23 39
50 40 63 0 13 18 41 40 64 22 23 40 50 40 59 0 10 18 35 40 57 22 21 40 47 40
58 0 10 26 45 58 78 31 32 69 79 83 103 32 54 557 583 579 583 8 0 44 27 80
60 36 33 72 60 81 60 9 0 34 16 55 36 22 19 62 48 90 65 29 16 57 36 64 44 7
8 19 15 27 15 9 0 37 18 63 40 26 22 57 40 67 40 11 0 28 9 38 20 10 11 28 20
40 20 12 0 30 9 40 20 10 11 28 20 40 20 12 0 30 9 40 20 10 11 28 20 40 20
12 0 30 9 40 20 10 11 31 20 47 20 17 0 41 9 55 20 14 11 38 20 53 20 15 0 35
9 45 20 13 14 31 20 62 20 30 0 49 6 63 20 15 15 33 20 73 20 41 0 58 5 72 20
15 17 31 20 94 20 59 0 83 5 106 20 28 19 47 20 365 20 318 0 337 -1 365 -20z
m1030 -600 c10 -11 29 -20 41 -20 13 0 29 -9 36 -20 7 -11 17 -20 23 -20 11 0
65 -81 65 -97 0 -5 18 -25 40 -44 28 -24 40 -42 40 -61 0 -15 6 -31 14 -35 7
-4 27 -33 43 -64 17 -31 38 -67 47 -80 9 -13 16 -30 16 -37 0 -8 9 -25 20 -39
11 -14 20 -41 20 -59 0 -23 6 -37 20 -44 13 -7 20 -21 20 -41 0 -17 9 -42 20
-56 12 -15 20 -41 20 -62 0 -24 7 -42 20 -54 15 -13 20 -29 20 -70 0 -41 5
-58 20 -72 17 -15 20 -31 20 -92 0 -60 4 -80 20 -100 17 -22 20 -41 20 -139 0
-85 4 -124 18 -156 14 -36 17 -75 17 -228 0 -153 -3 -192 -17 -228 -14 -32
-18 -71 -18 -165 0 -105 -3 -126 -20 -152 -16 -24 -20 -47 -20 -116 0 -73 -3
-89 -20 -104 -16 -15 -20 -31 -20 -85 0 -54 -4 -70 -20 -85 -16 -14 -20 -31
-20 -81 0 -53 -3 -65 -20 -74 -16 -8 -20 -21 -20 -58 0 -35 -5 -52 -20 -65
-14 -12 -20 -29 -20 -62 0 -34 -5 -47 -20 -55 -15 -8 -20 -21 -20 -54 0 -30
-6 -48 -20 -61 -11 -10 -20 -31 -20 -46 0 -18 -7 -32 -20 -39 -12 -6 -20 -21
-20 -36 0 -14 -9 -37 -20 -51 -11 -14 -20 -32 -20 -40 0 -21 -130 -267 -146
-276 -8 -4 -14 -21 -14 -37 0 -18 -7 -33 -19 -39 -10 -6 -21 -23 -24 -38 -3
-15 -22 -44 -41 -63 -21 -21 -36 -45 -36 -60 0 -16 -14 -37 -40 -59 -22 -19
-40 -44 -40 -55 0 -12 -22 -45 -49 -74 -27 -29 -56 -67 -64 -85 -9 -18 -39
-58 -67 -88 -29 -29 -57 -66 -63 -81 -7 -16 -122 -139 -257 -274 -233 -235
-330 -324 -351 -324 -5 0 -37 -27 -71 -60 -34 -33 -68 -60 -76 -60 -8 0 -36
-18 -62 -40 -26 -22 -53 -40 -60 -40 -7 0 -34 -18 -60 -40 -26 -22 -56 -40
-66 -40 -11 0 -25 -9 -32 -20 -7 -11 -17 -20 -22 -20 -6 0 -19 -9 -30 -20 -11
-11 -28 -20 -38 -20 -11 0 -27 -9 -37 -20 -10 -11 -28 -20 -40 -20 -12 0 -30
-9 -40 -20 -10 -11 -28 -20 -40 -20 -12 0 -30 -9 -40 -20 -10 -11 -29 -20 -42
-20 -12 0 -32 -9 -43 -20 -12 -12 -33 -20 -53 -20 -21 0 -41 -8 -52 -20 -10
-11 -31 -20 -47 -20 -17 0 -41 -9 -55 -20 -14 -11 -40 -20 -58 -20 -19 0 -39
-8 -50 -20 -13 -15 -31 -20 -67 -20 -35 0 -58 -6 -75 -20 -19 -15 -41 -20 -85
-20 -45 0 -66 -5 -85 -20 -22 -17 -41 -20 -131 -20 -58 0 -147 -7 -197 -16
-84 -15 -96 -15 -162 0 -44 10 -117 16 -186 16 -99 0 -118 3 -140 20 -18 15
-40 20 -81 20 -45 0 -57 4 -66 20 -8 15 -21 20 -50 20 -27 0 -47 7 -60 20 -11
11 -30 20 -42 20 -25 0 -88 53 -88 74 0 8 -7 19 -15 26 -19 16 -19 44 0 60 8
7 15 23 15 36 0 27 134 164 160 164 8 0 44 27 80 60 36 33 72 60 81 60 8 0 60
41 114 91 55 50 111 99 125 108 44 28 49 33 214 196 90 88 179 186 200 217 21
32 60 79 87 105 27 27 64 72 81 102 17 30 45 68 63 85 17 17 44 54 60 81 16
28 34 55 40 60 7 6 25 33 40 60 16 28 34 54 42 58 7 4 13 21 13 37 0 19 7 33
20 40 11 6 20 19 20 29 0 10 8 29 19 42 24 31 111 199 111 214 0 7 7 18 15 25
8 7 15 27 15 46 0 23 6 37 20 44 13 7 20 21 20 39 0 15 9 36 20 46 14 13 20
31 20 61 0 33 5 46 20 54 16 8 20 21 20 60 0 39 4 52 20 60 16 8 20 21 20 58
0 30 7 58 20 77 13 20 20 47 20 82 0 42 4 54 20 63 17 9 20 21 20 79 0 55 4
71 20 86 16 15 20 31 20 85 0 52 5 73 20 93 14 18 20 40 20 80 0 39 6 61 20
80 14 17 20 40 20 75 0 34 6 57 20 75 12 15 20 40 20 65 0 24 8 49 20 65 11
14 20 38 20 54 0 15 9 43 20 61 11 18 20 46 20 62 0 19 7 33 20 40 14 7 20 21
20 44 0 18 9 45 20 59 11 14 20 39 20 56 0 20 7 34 20 41 13 7 20 21 20 40 0
19 7 33 20 40 13 7 20 21 20 40 0 19 7 33 20 40 13 7 20 21 20 40 0 19 7 33
20 40 13 7 20 21 20 40 0 18 7 33 19 39 10 6 21 23 24 38 3 15 22 44 41 63 20
19 36 45 36 58 0 13 18 41 40 64 22 23 40 49 40 58 0 9 18 36 40 61 22 24 40
52 40 63 0 10 17 35 39 55 21 20 50 57 65 82 14 25 57 77 95 115 38 38 101
108 139 156 76 93 184 200 230 228 15 10 70 58 122 109 58 55 103 91 116 91
11 0 29 9 39 20 14 16 31 20 75 20 44 0 61 -4 75 -20z m1756 -3715 c52 -52
104 -113 116 -136 13 -23 35 -54 50 -69 35 -33 73 -86 73 -100 0 -5 8 -18 18
-28 28 -29 59 -76 66 -100 4 -12 16 -27 27 -32 12 -7 19 -21 19 -40 0 -19 7
-33 20 -40 13 -7 20 -21 20 -39 0 -15 9 -36 20 -46 11 -10 20 -31 20 -47 0
-17 9 -41 20 -55 11 -14 20 -38 20 -53 0 -15 9 -35 20 -45 14 -13 20 -31 20
-62 0 -30 7 -54 20 -70 15 -19 20 -41 20 -83 0 -44 4 -61 20 -75 17 -15 20
-31 20 -99 0 -64 4 -87 20 -111 19 -28 20 -47 20 -320 0 -273 -1 -292 -20
-320 -15 -23 -20 -47 -20 -106 0 -61 -4 -81 -20 -102 -15 -18 -20 -40 -20 -81
0 -44 -4 -60 -20 -73 -15 -13 -20 -30 -20 -64 0 -33 -5 -51 -20 -64 -12 -11
-20 -31 -20 -50 0 -18 -9 -44 -20 -58 -11 -14 -20 -39 -20 -56 0 -20 -7 -34
-20 -41 -13 -7 -20 -21 -20 -40 0 -19 -7 -33 -20 -40 -13 -7 -20 -21 -20 -40
0 -18 -7 -33 -19 -39 -10 -6 -21 -23 -24 -38 -3 -15 -22 -44 -41 -63 -21 -21
-36 -45 -36 -60 0 -16 -14 -37 -40 -59 -22 -19 -40 -44 -40 -55 -1 -12 -32
-54 -71 -95 -39 -41 -82 -93 -96 -115 -36 -56 -186 -205 -253 -249 -30 -20
-79 -61 -109 -92 -30 -30 -63 -55 -73 -55 -11 0 -33 -13 -49 -29 -32 -32 -115
-91 -128 -91 -4 0 -16 -9 -26 -20 -10 -11 -26 -20 -35 -20 -9 0 -25 -9 -35
-20 -10 -11 -23 -20 -29 -20 -7 0 -19 -9 -29 -20 -9 -11 -25 -20 -35 -20 -11
0 -27 -9 -37 -20 -10 -11 -28 -20 -40 -20 -12 0 -30 -9 -40 -20 -10 -11 -29
-20 -42 -20 -14 0 -36 -9 -50 -20 -14 -11 -38 -20 -53 -20 -15 0 -35 -9 -45
-20 -10 -11 -30 -20 -45 -20 -15 0 -35 -9 -45 -20 -13 -14 -31 -20 -60 -20
-29 0 -47 -6 -60 -20 -13 -15 -31 -20 -64 -20 -34 0 -51 -5 -64 -20 -13 -16
-29 -20 -75 -20 -45 0 -65 -5 -82 -20 -19 -16 -37 -20 -103 -20 -65 0 -86 -4
-116 -22 l-36 -23 -2590 -2 c-1424 -1 -2748 -3 -2941 -3 -250 -1 -358 1 -373
10 l-22 11 2 1372 c0 755 5 1496 9 1647 4 160 3 285 -2 299 -15 41 -4 54 32
36 22 -11 30 -23 30 -41 0 -14 9 -37 20 -51 12 -16 20 -41 20 -64 0 -28 5 -41
20 -49 13 -7 20 -21 20 -40 0 -19 7 -33 20 -40 13 -7 20 -21 20 -40 0 -19 7
-33 20 -40 13 -7 20 -21 20 -40 0 -19 7 -33 20 -40 13 -7 20 -21 20 -40 0 -19
7 -33 20 -40 11 -6 20 -20 20 -31 0 -12 18 -43 40 -69 22 -26 40 -56 40 -66 0
-11 16 -35 36 -54 19 -19 37 -46 41 -60 3 -14 23 -41 44 -61 22 -20 39 -45 39
-55 0 -11 29 -51 65 -89 36 -39 82 -95 102 -125 45 -68 243 -266 300 -300 68
-41 71 -56 77 -434 5 -244 3 -338 -6 -362 -11 -30 -10 -36 12 -59 l23 -25
2216 1 c1842 1 2230 3 2296 15 44 7 128 14 186 14 93 0 108 2 124 20 14 16 31
20 80 20 49 0 66 4 80 20 13 14 31 20 60 20 29 0 47 6 60 20 10 11 31 20 47
20 17 0 41 9 55 20 14 11 38 20 53 20 15 0 35 9 45 20 10 11 24 20 31 20 14 0
100 55 109 71 4 5 16 9 28 9 12 0 39 18 61 40 22 22 49 40 60 40 38 1 396 362
396 400 0 11 16 38 36 58 19 20 38 49 41 65 3 15 14 32 24 38 12 6 19 21 19
38 0 16 9 40 20 54 11 14 20 40 20 61 0 25 6 38 20 46 16 9 20 21 20 64 0 38
6 61 20 79 19 24 20 40 20 312 0 272 -1 288 -20 312 -14 18 -20 41 -20 78 0
39 -5 56 -20 70 -11 10 -20 30 -20 45 0 15 -9 35 -20 45 -11 10 -20 28 -20 40
0 12 -9 30 -20 40 -11 10 -20 28 -20 40 0 12 -9 30 -20 40 -11 10 -20 26 -20
35 0 9 9 25 20 35 11 10 20 31 20 46 0 17 7 32 19 38 10 6 21 23 24 38 3 15
22 46 42 67 19 22 35 50 35 62 0 13 9 28 20 34 13 7 20 21 20 40 0 19 7 33 20
40 13 7 20 21 20 40 0 19 7 33 20 40 11 6 20 21 20 34 0 13 9 31 20 41 11 10
20 31 20 46 0 18 7 32 20 39 13 7 20 21 20 40 0 19 7 33 20 40 13 7 20 21 20
39 0 16 9 40 20 54 11 14 20 40 20 61 0 25 6 38 20 46 11 6 20 19 20 30 0 79
40 67 151 -45z"/>
</g>
</svg>
